<?xml version="1.0" encoding="UTF-8"?>
<svg width="365px" height="245px" viewBox="0 0 365 245" version="1.1" xmlns="http://www.w3.org/2000/svg" xmlns:xlink="http://www.w3.org/1999/xlink">
    <!-- Generator: Sketch 52.2 (67145) - http://www.bohemiancoding.com/sketch -->
    <title>Group 25</title>
    <desc>Created with Sketch.</desc>
    <defs>
        <polygon id="path-1" points="0.0704766502 0.079 268.964376 0.079 268.964376 202.976719 0.0704766502 202.976719"></polygon>
        <polygon id="path-3" points="0.607954743 0.958481394 23.1000977 0.958481394 23.1000977 23 0.607954743 23"></polygon>
        <polygon id="path-5" points="0 0.961005009 22.5907 0.961005009 22.5907 22.9543224 0 22.9543224"></polygon>
        <polygon id="path-7" points="0 245.921 365 245.921 365 1 0 1"></polygon>
    </defs>
    <g id="Page-1" stroke="none" stroke-width="1" fill="none" fill-rule="evenodd">
        <g id="Artboard">
            <g id="Group-25" transform="translate(0.000000, -1.000000)">
                <g id="Group-3" transform="translate(48.000000, 0.921000)">
                    <mask id="mask-2" fill="white">
                        <use xlink:href="#path-1"></use>
                    </mask>
                    <g id="Clip-2"></g>
                    <path d="M173.7692,155.5656 C173.3712,155.5836 173.0402,155.5756 172.7172,155.6176 C170.1932,155.9416 167.6802,156.3226 165.2282,157.0246 C163.4832,157.5246 161.7752,158.1396 160.3122,159.2406 C157.2412,161.5496 155.8762,164.6216 156.4622,168.4506 C157.0622,172.3736 161.5532,174.1726 164.4292,171.3616 C165.3352,170.4756 166.2382,169.5646 167.0042,168.5586 C169.8652,164.7996 171.9532,160.6156 173.6112,156.2086 C173.6782,156.0306 173.7042,155.8376 173.7692,155.5656 M239.5592,164.6766 C239.5402,167.5866 239.6492,170.3476 240.8452,172.9446 C241.0122,173.3076 241.2202,173.6636 241.4722,173.9716 C242.7622,175.5496 244.2852,176.8516 246.1622,177.6786 C248.5022,178.7116 250.8102,178.5796 253.0012,177.2666 C256.1822,175.3616 257.5012,172.5266 256.9402,168.4196 C256.6892,166.5876 255.6392,165.2976 254.0052,164.4716 C252.7662,163.8446 251.4632,163.3956 250.0612,163.4246 C248.5552,163.4566 247.0412,163.4826 245.5502,163.6696 C243.5672,163.9206 241.6032,164.3266 239.5592,164.6766 M166.4112,131.3096 C166.4532,131.9806 166.4632,132.8206 166.5662,133.6496 C166.7232,134.9216 167.0422,136.1526 167.8112,137.2166 C168.5502,138.2406 169.4152,138.5876 170.6112,138.1876 C171.3952,137.9256 172.2032,137.5916 172.8512,137.0966 C173.9082,136.2886 174.9102,135.3826 175.8152,134.4066 C177.2592,132.8546 178.3552,131.0446 179.3492,129.1756 C181.1242,125.8346 182.1782,122.2436 183.0282,118.5826 C183.5892,116.1616 183.9812,113.7186 183.8452,111.2186 C183.7852,110.1046 183.5672,109.0286 183.0492,108.0276 C182.6142,107.1906 181.9632,106.6106 181.0692,106.2746 C179.9642,105.8596 178.8932,105.9886 177.8422,106.4196 C176.2262,107.0806 174.9002,108.1376 173.8072,109.4896 C172.3422,111.2996 171.2362,113.3236 170.2982,115.4436 C168.0842,120.4486 166.6402,125.6436 166.4112,131.3096 M228.2702,155.4016 C228.8652,152.4996 229.3932,149.7036 230.0182,146.9286 C231.1222,142.0266 232.3042,137.1436 233.4132,132.2426 C233.9232,129.9876 234.3562,127.7106 234.3352,125.3826 C234.3292,124.6506 234.2782,123.9016 234.1112,123.1926 C233.7262,121.5596 232.5592,120.6786 230.8872,120.7976 C230.0292,120.8596 229.1442,121.0206 228.3462,121.3306 C226.1952,122.1676 224.0882,123.1186 221.9532,123.9986 C221.4702,124.1986 221.3632,124.5816 221.2492,125.0096 C220.0482,129.5436 218.8412,134.0746 217.6342,138.6066 C216.3152,143.5596 215.0002,148.5126 213.6742,153.4626 C213.1362,155.4686 211.8452,156.6986 209.7932,157.0726 C206.8132,157.6156 204.0532,155.1326 204.2552,152.1106 C204.2772,151.7806 204.3202,151.4526 204.3692,150.9756 C200.9562,152.5766 197.4822,153.6016 193.8792,154.2056 C190.2672,154.8116 186.6282,155.0626 182.8802,155.0576 C182.7332,155.4286 182.5752,155.7876 182.4462,156.1566 C180.9342,160.4976 179.2052,164.7456 176.9322,168.7536 C175.2202,171.7696 173.2532,174.5986 170.6532,176.9346 C168.5702,178.8076 166.2332,180.2576 163.4232,180.6456 C154.1992,181.9196 148.3742,176.0856 147.7912,168.4336 C147.2572,161.4376 150.9362,154.2066 158.0492,150.8976 C161.2692,149.3986 164.6572,148.5026 168.1472,147.9736 C169.9992,147.6926 171.8682,147.4826 173.7382,147.3526 C174.6522,147.2896 175.2662,146.9236 175.6872,146.1736 C175.9232,145.7526 176.0942,145.2946 176.2222,144.7526 C172.6782,146.5156 169.0882,147.5266 165.2882,145.8846 C161.5792,144.2816 159.3382,141.3346 158.0862,137.4216 C157.8092,137.7316 157.6122,137.9326 157.4362,138.1506 C156.0032,139.9336 154.4682,141.6176 152.6542,143.0196 C150.2222,144.8976 147.5492,146.2336 144.4202,146.4206 C140.8472,146.6336 138.1012,145.2256 136.2752,142.1236 C135.3402,140.5356 134.9282,138.7816 134.7282,136.9636 C134.3772,133.7646 134.7172,130.6036 135.2432,127.4556 C136.4542,120.1906 138.6482,113.1946 141.0802,106.2656 C141.7012,104.4956 142.3632,102.7396 143.0192,100.9816 C143.4382,99.8586 144.0812,98.8926 145.0912,98.2066 C146.7092,97.1076 148.3862,97.1446 150.0162,98.1076 C151.6442,99.0676 152.3272,100.5946 152.1482,102.4516 C152.0792,103.1716 151.8182,103.8836 151.5762,104.5756 C149.7572,109.7586 147.8352,114.9076 146.1192,120.1246 C144.8432,124.0076 143.9272,127.9996 143.4912,132.0806 C143.3412,133.4846 143.2882,134.8906 143.5912,136.2856 C143.9982,138.1606 144.9602,138.6906 146.6292,137.7736 C147.6732,137.2006 148.6432,136.4406 149.5192,135.6296 C151.5252,133.7746 153.1232,131.5686 154.5952,129.2826 C155.6462,127.6496 156.6152,125.9616 157.5872,124.2796 C157.8162,123.8826 157.9682,123.4206 158.0632,122.9696 C159.3192,117.0376 161.4872,111.4876 164.9372,106.4706 C166.4672,104.2466 168.2922,102.2986 170.3592,100.5606 C173.6202,97.8186 177.4252,97.0266 181.5482,97.3496 C183.6782,97.5156 185.7072,98.0706 187.5542,99.1746 C188.6492,99.8286 189.6342,99.8316 190.7102,99.0406 C192.1302,97.9966 193.7502,97.8426 195.3922,98.4966 C197.6162,99.3826 198.6782,101.7416 197.9592,104.2566 C197.5352,105.7366 196.9852,107.1806 196.5012,108.6436 C193.6832,117.1706 191.3442,125.8386 188.8702,134.4686 C187.8822,137.9136 186.8242,141.3386 185.7992,144.7736 C185.6382,145.3116 185.4522,145.8486 185.6682,146.5146 C186.8132,146.4576 187.9452,146.4246 189.0722,146.3386 C192.5312,146.0746 195.9202,145.4746 199.1332,144.1116 C203.1622,142.4026 206.3192,139.7236 208.2832,135.7546 C208.5772,135.1586 208.8172,134.5246 208.9892,133.8826 C214.0162,115.0466 219.0352,96.2086 224.0452,77.3676 C224.5782,75.3646 225.7952,74.0816 227.8382,73.6586 C231.1442,72.9766 234.1582,75.9746 233.3962,79.2616 C232.7462,82.0666 231.9482,84.8376 231.2072,87.6216 C229.1332,95.4236 227.0542,103.2236 224.9802,111.0256 C224.9062,111.3066 224.8652,111.5956 224.7822,112.0196 C225.2122,111.8546 225.5142,111.7416 225.8132,111.6236 C228.0402,110.7506 230.3102,110.1086 232.7362,110.0946 C236.0942,110.0756 238.8622,111.3526 241.1302,113.7706 C243.3402,116.1276 244.4652,118.9996 244.9792,122.1386 C245.6452,126.2016 245.2712,130.2276 244.4772,134.2286 C243.3542,139.8806 242.2042,145.5266 241.0702,151.1756 C240.9992,151.5296 240.9652,151.8916 240.8972,152.3726 C241.6092,152.2806 242.2272,152.2136 242.8402,152.1236 C245.4312,151.7396 248.0332,151.4996 250.6532,151.5996 C254.9292,151.7636 258.8212,153.0836 262.2222,155.6786 C266.4542,158.9076 268.5402,163.3096 268.9132,168.5546 C269.0872,171.0106 268.8112,173.4306 268.1812,175.8236 C266.2872,183.0356 259.4902,189.0196 251.7022,190.0386 C247.6842,190.5636 243.8732,189.8886 240.3072,188.0166 C233.2692,184.3226 228.9632,178.6686 228.0702,170.6296 C227.9782,169.8036 227.8752,168.9776 227.7712,168.0916 C227.5402,168.1306 227.3442,168.1386 227.1652,168.1976 C216.7372,171.6316 206.6122,175.7746 197.0532,181.2086 C193.3842,183.2946 189.8372,185.5946 186.1792,187.7006 C178.6152,192.0536 170.7852,195.8446 162.5232,198.7046 C157.2222,200.5396 151.8172,201.9616 146.2362,202.5946 C139.5332,203.3566 132.9032,203.1066 126.5162,200.6686 C119.1632,197.8596 113.7092,192.9716 110.4992,185.7186 C109.1572,182.6856 108.5502,179.4546 108.2032,176.1786 C107.5452,169.9796 107.8672,163.7926 108.5152,157.6126 C109.7082,146.2236 112.0422,135.0446 114.7242,123.9316 C118.1202,109.8566 122.1782,95.9676 126.5752,82.1766 C126.8162,81.4186 127.1562,80.6836 126.9962,79.8336 C126.5432,77.4316 123.6682,75.9066 121.2512,76.8346 C120.0332,77.3026 118.8382,77.8366 117.6252,78.3176 C107.1362,82.4836 96.6382,86.6266 86.1572,90.8126 C76.2962,94.7516 66.4972,98.8366 56.9562,103.5136 C49.6932,107.0736 42.6352,110.9826 36.1462,115.8496 C30.3772,120.1766 25.1412,125.0506 20.8162,130.8516 C17.8522,134.8276 15.3992,139.0796 13.9562,143.8576 C13.1352,146.5726 12.6382,149.3366 13.0202,152.1846 C13.1412,153.0746 13.3302,153.9746 13.6312,154.8186 C14.6992,157.8056 16.8922,159.4786 19.9782,160.0246 C22.5532,160.4806 25.0542,160.0516 27.5142,159.3136 C31.1782,158.2136 34.4912,156.3996 37.6272,154.2456 C43.0872,150.4956 47.7492,145.8856 51.9692,140.8116 C58.2202,133.2956 63.2562,125.0046 67.5642,116.2536 C69.7272,111.8626 71.7122,107.3916 73.4322,102.8096 C74.8242,99.0976 78.6812,97.3746 81.4562,97.4726 C81.9212,97.4896 82.3932,97.5536 82.8442,97.6686 C84.5622,98.1046 85.5302,99.3296 85.4752,101.1006 C85.4532,101.8246 85.3352,102.5816 85.0872,103.2596 C79.5192,118.4796 72.4232,132.8946 62.4812,145.7866 C57.3992,152.3756 51.6712,158.3296 44.9132,163.2326 C40.3002,166.5796 35.3632,169.3086 29.8772,170.9626 C26.0222,172.1266 22.0982,172.6906 18.0682,172.2956 C13.6122,171.8596 9.6052,170.3116 6.1902,167.3776 C3.0892,164.7116 1.3362,161.2586 0.5632,157.2986 C-0.3818,152.4606 0.0962,147.6906 1.4542,142.9866 C3.2722,136.6886 6.4072,131.0636 10.3022,125.8386 C15.4552,118.9296 21.6662,113.0876 28.5262,107.9146 C37.4272,101.2006 47.0562,95.7596 57.3202,91.4106 C61.3272,89.7126 65.2682,87.8556 69.2292,86.0486 C72.1442,84.7196 74.5812,82.7446 76.6932,80.3596 C79.4072,77.2936 81.6132,73.8986 82.9352,70.0076 C83.6872,67.7906 84.2272,65.5016 84.8532,63.2416 C87.1312,55.0096 89.3822,46.7696 91.6922,38.5466 C92.4432,35.8716 93.3402,33.2366 94.1782,30.5866 C94.5732,29.3366 94.9152,28.0836 94.9572,26.7596 C95.0172,24.8256 94.1562,23.4946 92.4052,22.7106 C90.9452,22.0576 89.3882,21.7946 87.8212,21.6576 C83.3372,21.2666 78.9312,20.4316 74.5442,19.4646 C69.4102,18.3336 64.2882,17.1396 59.1332,16.1136 C56.5112,15.5926 53.8352,15.1566 51.1712,15.0706 C43.5952,14.8256 37.1552,17.4806 32.2602,23.3516 C28.0282,28.4266 25.8632,34.3266 26.1242,40.9816 C26.2882,45.1556 27.7672,48.8606 30.8822,51.7346 C34.8182,55.3666 39.4942,56.2826 44.6312,55.1186 C47.5862,54.4496 50.2162,53.0686 52.6312,51.2626 C53.3662,50.7136 54.1422,50.2806 55.0642,50.1336 C57.0612,49.8166 59.0692,50.8356 60.0952,52.7106 C61.0882,54.5246 60.8342,56.5526 59.3972,58.1006 C59.1022,58.4186 58.7682,58.7056 58.4232,58.9686 C54.4442,62.0076 50.0432,64.1346 45.0842,64.9766 C31.2792,67.3186 18.7432,58.7756 16.0472,45.1886 C13.7252,33.4736 18.5702,16.2966 35.2672,8.7856 C41.1962,6.1186 47.4312,5.1846 53.9032,5.6376 C59.7722,6.0476 65.5082,7.2536 71.2482,8.4506 C75.7072,9.3796 80.1642,10.3376 84.6942,10.8626 C89.4802,11.4176 94.2542,11.5196 98.9862,10.3666 C101.3932,9.7796 103.6202,8.7826 105.6892,7.4476 C107.3212,6.3936 108.9012,5.2586 110.4942,4.1456 C112.2812,2.8956 114.0872,1.6786 116.0782,0.7696 C117.4902,0.1256 118.9482,-0.1394 120.4792,0.2836 C123.5732,1.1386 125.3932,4.9246 124.1362,7.8756 C123.7842,8.7016 123.1992,9.3276 122.5162,9.8906 C120.1632,11.8316 117.7952,13.7566 115.4822,15.7446 C113.6722,17.2996 112.0102,19.0226 110.7042,21.0246 C109.7752,22.4496 108.9272,23.9486 108.2302,25.4996 C104.1782,34.5176 101.4072,43.9616 99.0212,53.5316 C97.9122,57.9846 96.7222,62.4166 95.5682,66.8586 C95.2602,68.0456 95.2012,69.2366 95.5092,70.4376 C96.0872,72.6866 98.0012,74.0726 100.3142,73.8156 C101.1702,73.7196 102.0352,73.5146 102.8452,73.2196 C112.9542,69.5296 122.8262,65.2856 132.4812,60.5346 C140.6362,56.5226 148.5982,52.1666 156.1812,47.1416 C161.0782,43.8956 165.7832,40.3986 170.0182,36.3056 C172.3632,34.0386 174.5172,31.6096 176.2582,28.8366 C177.3702,27.0666 178.2812,25.2106 178.6942,23.1396 C178.9452,21.8756 179.0032,20.6096 178.7452,19.3446 C178.1162,16.2706 175.8502,14.3556 172.6492,14.2146 C170.7262,14.1296 168.9352,14.6296 167.2532,15.5496 C165.7062,16.3946 164.3802,17.5166 163.1732,18.7866 C161.3372,20.7176 159.8442,22.9006 158.5092,25.1966 C155.9572,29.5876 154.0322,34.2636 152.2812,39.0166 C151.6442,40.7456 151.0072,42.4766 150.4452,44.2296 C149.1522,48.2596 144.6292,50.4396 141.3202,50.1636 C141.0222,50.1386 140.7232,50.0766 140.4332,49.9986 C138.7372,49.5396 138.0002,48.3176 138.5152,46.6356 C139.0832,44.7786 139.7402,42.9476 140.3792,41.1136 C142.4212,35.2576 144.6162,29.4626 147.4202,23.9196 C149.5602,19.6886 152.0002,15.6506 155.1352,12.0686 C157.9042,8.9036 161.0682,6.2436 164.9922,4.6126 C168.8632,3.0036 172.8892,2.3786 176.9922,3.4086 C183.3782,5.0126 187.2362,9.2396 188.8472,15.5366 C189.9372,19.7986 189.3962,23.9896 187.9232,28.0816 C186.4172,32.2646 184.0322,35.9376 181.2532,39.3676 C177.0272,44.5876 172.0342,48.9956 166.6922,53.0276 C161.7352,56.7686 156.5182,60.1126 151.1352,63.2026 C147.5872,65.2396 144.9732,68.2186 142.6752,71.5206 C142.4892,71.7886 142.3902,72.1246 142.2812,72.4396 C136.9372,87.8976 132.1872,103.5346 128.1122,119.3756 C125.9162,127.9106 123.9362,136.4946 122.3652,145.1686 C120.9972,152.7266 119.8882,160.3176 119.6862,168.0126 C119.5992,171.3026 119.7382,174.5816 120.4162,177.8176 C121.5562,183.2556 124.7892,186.9776 129.8082,189.2046 C133.2812,190.7466 136.9652,191.1456 140.7172,191.0746 C146.9512,190.9556 152.9222,189.4926 158.7752,187.4696 C167.3002,184.5236 175.2712,180.4166 183.0122,175.8326 C186.7022,173.6476 190.3282,171.3416 194.1102,169.3286 C204.6362,163.7266 215.6582,159.2986 227.0532,155.7936 C227.4972,155.6566 227.9362,155.5096 228.2702,155.4016" id="Fill-1" fill="#ED7A2E" mask="url(#mask-2)"></path>
                </g>
                <path d="M318.0754,224.3294 L323.2464,224.3294 L323.2464,245.4854 C322.2684,245.4854 321.3404,245.4934 320.4124,245.4824 C319.7444,245.4754 318.9644,245.6494 318.4404,245.3644 C317.9174,245.0794 317.6364,244.3314 317.2734,243.7704 C315.3064,240.7324 313.3464,237.6884 311.3824,234.6474 C311.2074,234.3764 311.0154,234.1154 310.7314,233.7054 C310.4774,234.8074 310.6224,235.7624 310.5964,236.7044 C310.5714,237.6764 310.5914,238.6484 310.5914,239.6204 L310.5914,242.4364 L310.5914,245.4124 L305.5304,245.4124 C305.3194,244.7104 305.2654,225.4974 305.4924,224.2684 C306.6374,224.2684 307.8154,224.3704 308.9684,224.2424 C310.3464,224.0884 311.1314,224.5904 311.8474,225.7794 C313.5734,228.6494 315.4694,231.4184 317.3004,234.2254 C317.4784,234.4994 317.6744,234.7634 318.0494,235.0014 C318.0574,234.1234 318.0694,233.2444 318.0744,232.3654 C318.0784,231.4944 318.0754,230.6224 318.0754,229.7504 L318.0754,227.0344 L318.0754,224.3294 Z" id="Fill-4" fill="#ED7A2E"></path>
                <g id="Group-8" transform="translate(256.000000, 222.921000)">
                    <mask id="mask-4" fill="white">
                        <use xlink:href="#path-3"></use>
                    </mask>
                    <g id="Clip-7"></g>
                    <path d="M17.7624,11.9641 C17.7744,8.7691 15.0714,6.0681 11.8604,6.0681 C8.6324,6.0681 5.9484,8.7341 5.9454,11.9421 C5.9434,15.1571 8.6114,17.8301 11.8384,17.8431 C15.0414,17.8561 17.7504,15.1671 17.7624,11.9641 M11.8614,23.0001 C6.7724,22.9341 2.2564,19.5661 0.9874,14.8311 C-0.6476,8.7361 3.1604,2.5391 9.3484,1.2211 C14.9434,0.0291 20.4844,2.9881 22.4314,8.2051 C24.7624,14.4501 20.7594,21.4701 14.1464,22.7141 C13.3934,22.8561 12.6234,22.9061 11.8614,23.0001" id="Fill-6" fill="#ED7A2E" mask="url(#mask-4)"></path>
                </g>
                <g id="Group-11" transform="translate(0.000000, 222.921000)">
                    <mask id="mask-6" fill="white">
                        <use xlink:href="#path-5"></use>
                    </mask>
                    <g id="Clip-10"></g>
                    <path d="M17.1647,11.8957 C17.1477,8.7057 14.4127,6.0357 11.1947,6.0687 C7.9807,6.1017 5.2957,8.8227 5.3297,12.0107 C5.3627,15.1997 8.1127,17.8797 11.3107,17.8427 C14.5337,17.8047 17.1817,15.1147 17.1647,11.8957 M22.5907,11.9487 C22.4747,17.9047 17.5887,22.7757 11.6387,22.9497 C7.0527,23.0837 2.1157,20.2997 0.5007,15.1947 C-1.4373,9.0667 2.4377,2.5437 8.7757,1.2177 C14.6637,-0.0143 20.4067,3.2927 22.0387,8.8997 C22.3257,9.8867 22.4127,10.9307 22.5907,11.9487" id="Fill-9" fill="#ED7A2E" mask="url(#mask-6)"></path>
                </g>
                <path d="M147.5183,232.2796 C146.7513,233.9246 146.0503,235.2996 145.4213,236.8116 L149.6183,236.8116 C148.9203,235.3056 148.2713,233.9056 147.5183,232.2796 M151.8643,241.6146 L143.1773,241.6146 C142.5683,242.8916 141.9663,244.1546 141.3533,245.4396 L135.7333,245.4396 C135.6993,245.3996 135.6733,245.3796 135.6613,245.3526 C135.6473,245.3236 135.6293,245.2806 135.6413,245.2566 C138.8493,238.4456 142.0593,231.6366 145.2723,224.8286 C145.3563,224.6506 145.4723,224.4876 145.5843,224.3006 L149.5013,224.3006 C152.8093,231.2856 156.1243,238.2876 159.4953,245.4076 L153.6503,245.4076 C153.0653,244.1676 152.4703,242.9026 151.8643,241.6146" id="Fill-12" fill="#ED7A2E"></path>
                <path d="M68.4646,228.5442 C67.2776,229.7632 66.0706,231.0022 64.7916,232.3152 C63.4206,230.2532 61.6806,228.9522 59.2026,228.9962 C57.5126,229.0262 56.0786,229.7032 54.9246,230.9312 C52.6886,233.3102 52.8326,236.9342 55.2526,239.1182 C56.7376,240.4582 58.4866,240.9702 60.4646,240.6212 C62.4246,240.2762 63.7146,239.0042 64.7316,237.4232 C66.0176,238.6612 67.2606,239.8592 68.5476,241.0992 C68.3756,241.3482 68.2456,241.5712 68.0816,241.7692 C63.8406,246.8462 56.0436,247.3022 51.3516,242.6902 C48.2636,239.6552 47.2606,235.9392 48.4746,231.8062 C49.7016,227.6292 52.6256,225.0322 56.8726,224.1532 C61.3416,223.2292 65.1426,224.5742 68.1506,228.0482 C68.2156,228.1232 68.2776,228.2032 68.3336,228.2862 C68.3706,228.3412 68.3936,228.4032 68.4646,228.5442" id="Fill-14" fill="#ED7A2E"></path>
                <path d="M112.5529,228.552 C111.2699,229.739 109.9979,230.916 108.6959,232.121 C107.5039,230.307 105.8219,229.029 103.4269,228.996 C101.7349,228.973 100.2829,229.609 99.0909,230.797 C96.7509,233.13 96.8089,236.789 99.2319,239.059 C100.6929,240.427 102.4339,240.949 104.4219,240.636 C105.9559,240.394 106.6599,239.894 108.8079,237.486 C110.0639,238.672 111.3229,239.861 112.6459,241.11 C112.3449,241.48 112.1129,241.799 111.8459,242.084 C108.8189,245.317 105.0869,246.525 100.7989,245.572 C96.7079,244.661 93.8629,242.155 92.5519,238.116 C90.5569,231.968 94.5359,225.332 100.9239,224.132 C105.4139,223.288 109.1959,224.587 112.1979,228.065 C112.3039,228.187 112.3899,228.327 112.5529,228.552" id="Fill-16" fill="#ED7A2E"></path>
                <path d="M186.9177,238.845 C187.2267,239.082 187.5667,239.352 187.9167,239.61 C188.9477,240.368 190.1177,240.773 191.3837,240.763 C191.9257,240.76 192.5247,240.603 192.9937,240.334 C193.7117,239.921 193.7357,239.092 193.0817,238.574 C192.6687,238.247 192.1777,238.001 191.6897,237.79 C190.5537,237.3 189.3687,236.914 188.2607,236.37 C187.4287,235.961 186.5977,235.467 185.9177,234.846 C183.1497,232.317 183.3147,227.932 186.2107,225.546 C187.1337,224.786 188.1797,224.254 189.3577,224.063 C192.8097,223.503 195.9617,224.083 198.5637,226.616 C198.6347,226.685 198.6887,226.771 198.7717,226.873 C197.5167,228.064 196.2627,229.253 194.9767,230.473 C194.8427,230.356 194.5917,230.137 194.3397,229.92 C193.3677,229.082 192.2237,228.784 190.9727,228.927 C190.6237,228.967 190.2507,229.115 189.9627,229.318 C189.2227,229.84 189.1987,230.594 189.9177,231.158 C190.3337,231.483 190.8187,231.74 191.3067,231.95 C192.2897,232.374 193.3207,232.691 194.2827,233.155 C195.1817,233.588 196.0977,234.056 196.8627,234.683 C199.7507,237.047 199.8337,241.361 197.0937,243.894 C196.0607,244.851 194.8447,245.488 193.4537,245.697 C189.5097,246.291 186.0257,245.335 183.1227,242.564 C184.3797,241.333 185.6157,240.121 186.9177,238.845" id="Fill-18" fill="#ED7A2E"></path>
                <path d="M348.9753,242.4915 C350.2473,241.2525 351.4683,240.0625 352.7533,238.8105 C353.0103,238.9995 353.3323,239.2215 353.6403,239.4635 C354.6763,240.2745 355.8563,240.7395 357.1613,240.7595 C357.7353,240.7665 358.3713,240.6235 358.8763,240.3545 C359.6353,239.9515 359.6573,239.0475 358.9573,238.5345 C358.4773,238.1825 357.9233,237.9165 357.3733,237.6795 C356.3293,237.2285 355.2373,236.8845 354.2183,236.3865 C353.4123,235.9945 352.6093,235.5295 351.9413,234.9425 C349.0333,232.3885 349.2053,227.8295 352.2603,225.4445 C353.4543,224.5125 354.8193,223.9985 356.3313,223.9035 C358.3993,223.7755 360.4333,223.9495 362.2733,224.9935 C363.1373,225.4825 363.9083,226.1365 364.8563,226.8115 C363.5403,228.1465 362.3313,229.3705 361.0883,230.6315 C360.7853,230.3695 360.5363,230.1525 360.2863,229.9365 C359.3163,229.1005 358.1783,228.7855 356.9243,228.9245 C356.5753,228.9635 356.2013,229.1035 355.9113,229.3035 C355.1723,229.8105 355.1413,230.5705 355.8253,231.1435 C356.1283,231.3985 356.4833,231.6115 356.8463,231.7715 C357.6413,232.1235 358.4723,232.3955 359.2583,232.7635 C360.3163,233.2585 361.4093,233.7175 362.3743,234.3595 C365.7193,236.5815 366.0413,241.8785 362.3343,244.4475 C361.0613,245.3305 359.6593,245.7855 358.1093,245.8565 C354.6223,246.0165 351.5753,245.0045 348.9753,242.4915" id="Fill-20" fill="#ED7A2E"></path>
                <mask id="mask-8" fill="white">
                    <use xlink:href="#path-7"></use>
                </mask>
                <g id="Clip-23"></g>
                <polygon id="Fill-22" fill="#ED7A2E" mask="url(#mask-8)" points="225.106 245.427 230.313 245.427 230.313 224.352 225.106 224.352"></polygon>
                <path d="M199.8591,93.6028 C196.8331,93.6138 194.4811,91.2568 194.4491,88.1818 C194.4161,85.0638 196.7721,82.6408 199.8361,82.6418 C202.9081,82.6428 205.3151,85.0408 205.3211,88.1078 C205.3281,91.1718 202.9221,93.5918 199.8591,93.6028" id="Fill-24" fill="#ED7A2E" mask="url(#mask-8)"></path>
            </g>
        </g>
    </g>
</svg>