<?xml version="1.0" encoding="UTF-8"?>
<svg width="365px" height="379px" viewBox="0 0 365 379" version="1.1" xmlns="http://www.w3.org/2000/svg" xmlns:xlink="http://www.w3.org/1999/xlink">
    <!-- Generator: Sketch 52.2 (67145) - http://www.bohemiancoding.com/sketch -->
    <title>Artboard</title>
    <desc>Created with Sketch.</desc>
    <defs>
        <polygon id="path-1" points="0.0705097799 0.252 268.964582 0.252 268.964582 203.150311 0.0705097799 203.150311"></polygon>
        <polygon id="path-3" points="0 379.748 365 379.748 365 1 0 1"></polygon>
    </defs>
    <g id="Artboard" stroke="none" stroke-width="1" fill="none" fill-rule="evenodd">
        <g id="Group-30" transform="translate(0.000000, -1.000000)">
            <g id="Group-3" transform="translate(48.000000, 0.748000)">
                <mask id="mask-2" fill="white">
                    <use xlink:href="#path-1"></use>
                </mask>
                <g id="Clip-2"></g>
                <path d="M173.7695,155.7387 C173.3715,155.7567 173.0405,155.7487 172.7165,155.7907 C170.1935,156.1147 167.6795,156.4957 165.2285,157.1977 C163.4835,157.6977 161.7755,158.3127 160.3115,159.4137 C157.2415,161.7227 155.8755,164.7947 156.4615,168.6237 C157.0625,172.5457 161.5535,174.3457 164.4285,171.5347 C165.3355,170.6487 166.2385,169.7377 167.0045,168.7317 C169.8655,164.9727 171.9535,160.7887 173.6115,156.3817 C173.6775,156.2037 173.7045,156.0107 173.7695,155.7387 M239.5595,164.8497 C239.5405,167.7597 239.6495,170.5207 240.8455,173.1177 C241.0115,173.4807 241.2205,173.8367 241.4725,174.1447 C242.7615,175.7227 244.2855,177.0247 246.1625,177.8517 C248.5015,178.8847 250.8095,178.7527 253.0015,177.4397 C256.1815,175.5347 257.5015,172.6997 256.9405,168.5927 C256.6895,166.7607 255.6385,165.4707 254.0055,164.6447 C252.7655,164.0177 251.4635,163.5687 250.0605,163.5977 C248.5555,163.6297 247.0405,163.6557 245.5495,163.8427 C243.5675,164.0937 241.6035,164.4997 239.5595,164.8497 M166.4115,131.4827 C166.4535,132.1537 166.4625,132.9937 166.5655,133.8227 C166.7235,135.0947 167.0425,136.3257 167.8105,137.3897 C168.5495,138.4127 169.4155,138.7607 170.6115,138.3607 C171.3955,138.0977 172.2025,137.7647 172.8505,137.2697 C173.9085,136.4617 174.9105,135.5557 175.8155,134.5797 C177.2585,133.0277 178.3555,131.2177 179.3485,129.3477 C181.1245,126.0077 182.1775,122.4157 183.0285,118.7557 C183.5895,116.3347 183.9815,113.8917 183.8445,111.3917 C183.7855,110.2777 183.5675,109.2017 183.0485,108.2007 C182.6145,107.3627 181.9625,106.7837 181.0695,106.4477 C179.9635,106.0327 178.8925,106.1617 177.8415,106.5927 C176.2265,107.2537 174.9005,108.3107 173.8075,109.6617 C172.3425,111.4727 171.2365,113.4967 170.2975,115.6167 C168.0845,120.6207 166.6395,125.8167 166.4115,131.4827 M228.2705,155.5747 C228.8655,152.6727 229.3935,149.8767 230.0185,147.1017 C231.1225,142.1997 232.3035,137.3167 233.4135,132.4157 C233.9225,130.1607 234.3565,127.8837 234.3355,125.5557 C234.3295,124.8237 234.2785,124.0737 234.1115,123.3647 C233.7255,121.7327 232.5585,120.8517 230.8875,120.9707 C230.0295,121.0327 229.1435,121.1937 228.3455,121.5037 C226.1955,122.3407 224.0875,123.2917 221.9535,124.1717 C221.4695,124.3707 221.3635,124.7547 221.2495,125.1827 C220.0475,129.7167 218.8415,134.2477 217.6335,138.7797 C216.3155,143.7327 215.0005,148.6857 213.6735,153.6357 C213.1365,155.6417 211.8445,156.8717 209.7925,157.2457 C206.8135,157.7887 204.0525,155.3057 204.2555,152.2837 C204.2775,151.9537 204.3205,151.6257 204.3695,151.1487 C200.9565,152.7497 197.4825,153.7747 193.8785,154.3787 C190.2675,154.9847 186.6275,155.2357 182.8795,155.2307 C182.7335,155.6017 182.5755,155.9607 182.4465,156.3297 C180.9335,160.6707 179.2055,164.9187 176.9315,168.9267 C175.2205,171.9427 173.2535,174.7717 170.6535,177.1077 C168.5705,178.9807 166.2335,180.4307 163.4235,180.8187 C154.1995,182.0927 148.3735,176.2577 147.7905,168.6067 C147.2565,161.6107 150.9365,154.3797 158.0495,151.0707 C161.2695,149.5717 164.6575,148.6757 168.1475,148.1467 C169.9995,147.8657 171.8685,147.6547 173.7385,147.5257 C174.6525,147.4627 175.2665,147.0967 175.6875,146.3467 C175.9235,145.9257 176.0935,145.4677 176.2215,144.9257 C172.6775,146.6887 169.0885,147.6997 165.2885,146.0577 C161.5795,144.4547 159.3385,141.5077 158.0865,137.5947 C157.8095,137.9047 157.6125,138.1057 157.4355,138.3237 C156.0035,140.1067 154.4685,141.7907 152.6545,143.1927 C150.2215,145.0707 147.5495,146.4067 144.4195,146.5937 C140.8465,146.8067 138.1015,145.3987 136.2755,142.2967 C135.3405,140.7087 134.9285,138.9537 134.7285,137.1367 C134.3765,133.9377 134.7175,130.7767 135.2425,127.6287 C136.4545,120.3637 138.6485,113.3667 141.0805,106.4377 C141.7015,104.6687 142.3635,102.9127 143.0185,101.1547 C143.4385,100.0317 144.0815,99.0657 145.0905,98.3797 C146.7095,97.2807 148.3855,97.3177 150.0165,98.2807 C151.6435,99.2407 152.3275,100.7677 152.1485,102.6247 C152.0795,103.3447 151.8185,104.0567 151.5765,104.7487 C149.7565,109.9317 147.8345,115.0807 146.1195,120.2977 C144.8425,124.1807 143.9275,128.1727 143.4915,132.2537 C143.3415,133.6577 143.2885,135.0637 143.5905,136.4587 C143.9985,138.3337 144.9595,138.8637 146.6285,137.9467 C147.6725,137.3737 148.6425,136.6137 149.5195,135.8027 C151.5255,133.9477 153.1235,131.7417 154.5955,129.4557 C155.6465,127.8227 156.6155,126.1347 157.5865,124.4527 C157.8165,124.0557 157.9675,123.5937 158.0635,123.1427 C159.3195,117.2107 161.4875,111.6607 164.9375,106.6437 C166.4675,104.4187 168.2915,102.4717 170.3595,100.7337 C173.6205,97.9917 177.4245,97.1997 181.5485,97.5227 C183.6775,97.6887 185.7075,98.2437 187.5545,99.3467 C188.6495,100.0017 189.6335,100.0047 190.7095,99.2137 C192.1305,98.1697 193.7505,98.0157 195.3915,98.6697 C197.6165,99.5557 198.6775,101.9147 197.9585,104.4297 C197.5355,105.9097 196.9855,107.3527 196.5015,108.8167 C193.6825,117.3427 191.3445,126.0117 188.8705,134.6417 C187.8815,138.0867 186.8245,141.5117 185.7995,144.9467 C185.6375,145.4847 185.4515,146.0217 185.6675,146.6877 C186.8135,146.6307 187.9455,146.5977 189.0725,146.5117 C192.5315,146.2477 195.9195,145.6477 199.1335,144.2847 C203.1625,142.5757 206.3195,139.8957 208.2835,135.9267 C208.5775,135.3317 208.8175,134.6967 208.9895,134.0557 C214.0165,115.2197 219.0355,96.3817 224.0455,77.5407 C224.5785,75.5367 225.7955,74.2547 227.8385,73.8317 C231.1445,73.1497 234.1585,76.1477 233.3965,79.4347 C232.7465,82.2397 231.9485,85.0107 231.2075,87.7947 C229.1335,95.5957 227.0545,103.3967 224.9805,111.1987 C224.9055,111.4797 224.8655,111.7687 224.7825,112.1927 C225.2115,112.0277 225.5135,111.9137 225.8135,111.7967 C228.0405,110.9237 230.3105,110.2817 232.7365,110.2677 C236.0935,110.2487 238.8625,111.5247 241.1305,113.9437 C243.3395,116.3007 244.4645,119.1727 244.9795,122.3117 C245.6455,126.3747 245.2715,130.4007 244.4765,134.4017 C243.3545,140.0537 242.2045,145.6987 241.0705,151.3487 C240.9985,151.7027 240.9655,152.0647 240.8975,152.5447 C241.6095,152.4537 242.2265,152.3867 242.8395,152.2957 C245.4305,151.9127 248.0335,151.6717 250.6535,151.7727 C254.9295,151.9367 258.8215,153.2567 262.2225,155.8517 C266.4545,159.0807 268.5405,163.4827 268.9135,168.7277 C269.0875,171.1837 268.8105,173.6037 268.1815,175.9967 C266.2875,183.2087 259.4905,189.1927 251.7025,190.2117 C247.6845,190.7367 243.8735,190.0617 240.3065,188.1897 C233.2695,184.4957 228.9625,178.8407 228.0705,170.8027 C227.9785,169.9757 227.8755,169.1507 227.7715,168.2647 C227.5405,168.3037 227.3445,168.3117 227.1655,168.3707 C216.7375,171.8037 206.6125,175.9477 197.0535,181.3817 C193.3835,183.4677 189.8365,185.7677 186.1785,187.8737 C178.6155,192.2277 170.7855,196.0177 162.5235,198.8777 C157.2215,200.7127 151.8175,202.1337 146.2365,202.7687 C139.5335,203.5297 132.9035,203.2807 126.5165,200.8407 C119.1635,198.0327 113.7095,193.1447 110.4995,185.8917 C109.1575,182.8587 108.5505,179.6277 108.2035,176.3517 C107.5455,170.1527 107.8675,163.9657 108.5145,157.7857 C109.7075,146.3967 112.0425,135.2177 114.7235,124.1047 C118.1195,110.0297 122.1775,96.1407 126.5755,82.3497 C126.8165,81.5917 127.1555,80.8557 126.9965,80.0067 C126.5435,77.6047 123.6685,76.0797 121.2515,77.0077 C120.0325,77.4757 118.8385,78.0087 117.6245,78.4907 C107.1365,82.6567 96.6385,86.7997 86.1575,90.9857 C76.2965,94.9247 66.4975,99.0097 56.9565,103.6867 C49.6935,107.2467 42.6345,111.1557 36.1465,116.0227 C30.3775,120.3497 25.1405,125.2237 20.8155,131.0247 C17.8525,135.0007 15.3995,139.2527 13.9565,144.0307 C13.1355,146.7457 12.6385,149.5097 13.0205,152.3577 C13.1405,153.2477 13.3295,154.1477 13.6305,154.9917 C14.6995,157.9787 16.8925,159.6507 19.9785,160.1967 C22.5535,160.6537 25.0545,160.2237 27.5145,159.4867 C31.1775,158.3867 34.4915,156.5727 37.6275,154.4187 C43.0875,150.6677 47.7495,146.0587 51.9695,140.9847 C58.2195,133.4687 63.2555,125.1777 67.5645,116.4267 C69.7275,112.0357 71.7125,107.5647 73.4315,102.9827 C74.8245,99.2707 78.6815,97.5477 81.4565,97.6457 C81.9205,97.6627 82.3935,97.7267 82.8445,97.8417 C84.5625,98.2767 85.5305,99.5027 85.4755,101.2737 C85.4535,101.9977 85.3355,102.7537 85.0875,103.4317 C79.5195,118.6527 72.4235,133.0677 62.4805,145.9597 C57.3995,152.5487 51.6715,158.5027 44.9135,163.4057 C40.3005,166.7527 35.3625,169.4817 29.8775,171.1357 C26.0225,172.2997 22.0985,172.8637 18.0685,172.4687 C13.6125,172.0327 9.6055,170.4847 6.1905,167.5507 C3.0885,164.8847 1.3355,161.4317 0.5625,157.4717 C-0.3815,152.6337 0.0965,147.8637 1.4545,143.1597 C3.2725,136.8617 6.4065,131.2367 10.3025,126.0117 C15.4545,119.1027 21.6665,113.2597 28.5255,108.0867 C37.4275,101.3737 47.0565,95.9327 57.3195,91.5837 C61.3275,89.8857 65.2685,88.0287 69.2295,86.2217 C72.1445,84.8927 74.5815,82.9177 76.6935,80.5327 C79.4075,77.4667 81.6125,74.0717 82.9345,70.1807 C83.6875,67.9637 84.2275,65.6747 84.8535,63.4147 C87.1315,55.1827 89.3825,46.9427 91.6925,38.7197 C92.4435,36.0447 93.3405,33.4097 94.1785,30.7597 C94.5735,29.5097 94.9155,28.2567 94.9565,26.9327 C95.0175,24.9987 94.1565,23.6677 92.4045,22.8837 C90.9455,22.2307 89.3885,21.9677 87.8205,21.8307 C83.3375,21.4387 78.9315,20.6047 74.5445,19.6377 C69.4105,18.5067 64.2885,17.3127 59.1325,16.2867 C56.5115,15.7657 53.8345,15.3297 51.1705,15.2437 C43.5945,14.9977 37.1555,17.6537 32.2605,23.5237 C28.0285,28.5997 25.8635,34.4997 26.1245,41.1547 C26.2885,45.3287 27.7675,49.0337 30.8815,51.9077 C34.8175,55.5397 39.4945,56.4557 44.6315,55.2917 C47.5855,54.6217 50.2165,53.2417 52.6315,51.4357 C53.3655,50.8867 54.1415,50.4537 55.0645,50.3067 C57.0615,49.9897 59.0685,51.0087 60.0955,52.8837 C61.0885,54.6977 60.8335,56.7247 59.3965,58.2737 C59.1025,58.5917 58.7675,58.8787 58.4225,59.1417 C54.4445,62.1807 50.0435,64.3077 45.0845,65.1497 C31.2795,67.4917 18.7425,58.9487 16.0475,45.3617 C13.7245,33.6467 18.5705,16.4697 35.2675,8.9587 C41.1965,6.2917 47.4305,5.3577 53.9025,5.8107 C59.7725,6.2207 65.5085,7.4267 71.2485,8.6237 C75.7075,9.5527 80.1635,10.5107 84.6945,11.0357 C89.4805,11.5907 94.2545,11.6927 98.9865,10.5397 C101.3925,9.9527 103.6205,8.9557 105.6885,7.6207 C107.3215,6.5667 108.9015,5.4317 110.4945,4.3187 C112.2815,3.0687 114.0865,1.8517 116.0785,0.9427 C117.4895,0.2987 118.9485,0.0337 120.4785,0.4567 C123.5735,1.3117 125.3935,5.0977 124.1355,8.0487 C123.7835,8.8747 123.1995,9.4997 122.5165,10.0637 C120.1625,12.0047 117.7955,13.9297 115.4825,15.9177 C113.6725,17.4727 112.0095,19.1957 110.7045,21.1977 C109.7755,22.6227 108.9275,24.1217 108.2305,25.6727 C104.1775,34.6907 101.4075,44.1347 99.0215,53.7047 C97.9125,58.1577 96.7215,62.5897 95.5685,67.0317 C95.2605,68.2187 95.2015,69.4097 95.5095,70.6107 C96.0875,72.8597 98.0015,74.2457 100.3145,73.9887 C101.1705,73.8927 102.0355,73.6877 102.8445,73.3927 C112.9535,69.7027 122.8265,65.4587 132.4805,60.7077 C140.6355,56.6957 148.5975,52.3397 156.1805,47.3147 C161.0785,44.0687 165.7835,40.5717 170.0175,36.4787 C172.3625,34.2117 174.5175,31.7827 176.2575,29.0097 C177.3695,27.2397 178.2815,25.3837 178.6945,23.3117 C178.9455,22.0487 179.0025,20.7827 178.7455,19.5177 C178.1165,16.4437 175.8505,14.5287 172.6495,14.3877 C170.7255,14.3027 168.9355,14.8027 167.2525,15.7217 C165.7065,16.5677 164.3805,17.6887 163.1735,18.9597 C161.3365,20.8907 159.8445,23.0737 158.5095,25.3697 C155.9575,29.7607 154.0325,34.4367 152.2815,39.1897 C151.6445,40.9187 151.0075,42.6497 150.4455,44.4027 C149.1525,48.4327 144.6295,50.6127 141.3205,50.3357 C141.0225,50.3107 140.7235,50.2497 140.4335,50.1717 C138.7375,49.7127 138.0005,48.4907 138.5155,46.8087 C139.0835,44.9517 139.7405,43.1207 140.3795,41.2867 C142.4215,35.4307 144.6165,29.6357 147.4195,24.0917 C149.5605,19.8617 152.0005,15.8237 155.1345,12.2417 C157.9045,9.0767 161.0685,6.4167 164.9925,4.7857 C168.8635,3.1767 172.8885,2.5517 176.9925,3.5817 C183.3785,5.1857 187.2365,9.4127 188.8475,15.7097 C189.9375,19.9707 189.3965,24.1627 187.9225,28.2547 C186.4175,32.4377 184.0315,36.1107 181.2535,39.5407 C177.0275,44.7607 172.0345,49.1677 166.6925,53.2007 C161.7355,56.9417 156.5175,60.2857 151.1345,63.3757 C147.5865,65.4127 144.9725,68.3917 142.6755,71.6937 C142.4895,71.9617 142.3905,72.2977 142.2815,72.6127 C136.9375,88.0707 132.1875,103.7077 128.1115,119.5487 C125.9155,128.0837 123.9355,136.6677 122.3655,145.3417 C120.9975,152.8997 119.8885,160.4907 119.6865,168.1857 C119.5995,171.4757 119.7385,174.7547 120.4165,177.9907 C121.5565,183.4287 124.7895,187.1507 129.8085,189.3777 C133.2815,190.9187 136.9645,191.3197 140.7175,191.2467 C146.9515,191.1287 152.9215,189.6657 158.7745,187.6427 C167.3005,184.6967 175.2715,180.5897 183.0115,176.0057 C186.7025,173.8197 190.3285,171.5137 194.1105,169.5017 C204.6355,163.8997 215.6585,159.4717 227.0525,155.9667 C227.4975,155.8297 227.9365,155.6817 228.2705,155.5747" id="Fill-1" fill="#F8F7D6" mask="url(#mask-2)"></path>
            </g>
            <path d="M318.0752,224.329 L323.2462,224.329 L323.2462,245.486 C322.2682,245.486 321.3412,245.493 320.4122,245.483 C319.7452,245.475 318.9642,245.65 318.4402,245.365 C317.9172,245.079 317.6372,244.331 317.2732,243.77 C315.3062,240.732 313.3462,237.688 311.3832,234.648 C311.2072,234.377 311.0152,234.115 310.7312,233.706 C310.4772,234.807 310.6232,235.762 310.5962,236.704 C310.5712,237.676 310.5912,238.648 310.5912,239.621 L310.5912,242.437 L310.5912,245.412 L305.5302,245.412 C305.3192,244.71 305.2652,225.497 305.4932,224.268 C306.6372,224.268 307.8152,224.37 308.9692,224.242 C310.3462,224.088 311.1312,224.59 311.8462,225.78 C313.5732,228.65 315.4692,231.418 317.3002,234.225 C317.4782,234.5 317.6742,234.763 318.0492,235.002 C318.0572,234.123 318.0692,233.245 318.0732,232.366 C318.0782,231.494 318.0752,230.622 318.0752,229.751 L318.0752,227.035 L318.0752,224.329 Z" id="Fill-4" fill="#F8F7D6"></path>
            <path d="M273.7627,234.8846 C273.7747,231.6896 271.0717,228.9896 267.8607,228.9886 C264.6327,228.9886 261.9487,231.6546 261.9457,234.8626 C261.9437,238.0786 264.6117,240.7516 267.8377,240.7636 C271.0407,240.7766 273.7497,238.0876 273.7627,234.8846 M267.8617,245.9206 C262.7727,245.8546 258.2567,242.4866 256.9877,237.7516 C255.3527,231.6566 259.1597,225.4606 265.3487,224.1426 C270.9437,222.9506 276.4847,225.9086 278.4317,231.1266 C280.7627,237.3706 276.7597,244.3916 270.1467,245.6346 C269.3937,245.7766 268.6227,245.8266 267.8617,245.9206" id="Fill-6" fill="#F8F7D6"></path>
            <path d="M17.1646,234.8163 C17.1476,231.6263 14.4126,228.9563 11.1946,228.9893 C7.9806,229.0223 5.2956,231.7433 5.3296,234.9313 C5.3636,238.1213 8.1126,240.8003 11.3106,240.7633 C14.5336,240.7263 17.1826,238.0353 17.1646,234.8163 M22.5916,234.8703 C22.4746,240.8263 17.5886,245.6973 11.6386,245.8713 C7.0526,246.0043 2.1156,243.2213 0.5016,238.1163 C-1.4364,231.9873 2.4386,225.4653 8.7756,224.1383 C14.6636,222.9063 20.4066,226.2133 22.0396,231.8213 C22.3266,232.8073 22.4126,233.8513 22.5916,234.8703" id="Fill-8" fill="#F8F7D6"></path>
            <path d="M147.5186,232.2792 C146.7506,233.9242 146.0506,235.2992 145.4206,236.8122 L149.6186,236.8122 C148.9206,235.3062 148.2716,233.9062 147.5186,232.2792 M151.8646,241.6152 L143.1766,241.6152 C142.5676,242.8922 141.9656,244.1542 141.3536,245.4392 L135.7336,245.4392 C135.6996,245.3992 135.6736,245.3792 135.6616,245.3532 C135.6476,245.3232 135.6296,245.2802 135.6416,245.2572 C138.8496,238.4462 142.0596,231.6362 145.2726,224.8282 C145.3566,224.6502 145.4726,224.4882 145.5846,224.3002 L149.5016,224.3002 C152.8096,231.2862 156.1246,238.2882 159.4956,245.4082 L153.6496,245.4082 C153.0656,244.1672 152.4706,242.9022 151.8646,241.6152" id="Fill-10" fill="#F8F7D6"></path>
            <path d="M68.4644,228.5448 C67.2774,229.7628 66.0714,231.0018 64.7914,232.3158 C63.4214,230.2538 61.6814,228.9518 59.2034,228.9968 C57.5124,229.0268 56.0784,229.7028 54.9244,230.9308 C52.6884,233.3108 52.8334,236.9338 55.2524,239.1178 C56.7374,240.4588 58.4864,240.9708 60.4644,240.6218 C62.4244,240.2758 63.7144,239.0038 64.7314,237.4228 C66.0174,238.6618 67.2604,239.8588 68.5474,241.0998 C68.3764,241.3488 68.2454,241.5718 68.0814,241.7688 C63.8404,246.8458 56.0434,247.3018 51.3524,242.6908 C48.2634,239.6548 47.2614,235.9398 48.4754,231.8068 C49.7014,227.6288 52.6264,225.0318 56.8724,224.1538 C61.3414,223.2288 65.1424,224.5738 68.1504,228.0478 C68.2154,228.1238 68.2774,228.2038 68.3344,228.2868 C68.3704,228.3408 68.3934,228.4028 68.4644,228.5448" id="Fill-12" fill="#F8F7D6"></path>
            <path d="M112.5527,228.5526 C111.2697,229.7396 109.9977,230.9156 108.6957,232.1206 C107.5037,230.3066 105.8217,229.0296 103.4277,228.9956 C101.7347,228.9726 100.2837,229.6086 99.0907,230.7976 C96.7507,233.1306 96.8087,236.7886 99.2327,239.0586 C100.6937,240.4276 102.4337,240.9486 104.4217,240.6356 C105.9557,240.3936 106.6597,239.8936 108.8077,237.4866 C110.0637,238.6716 111.3227,239.8606 112.6467,241.1106 C112.3447,241.4796 112.1137,241.7986 111.8457,242.0836 C108.8187,245.3166 105.0867,246.5246 100.7987,245.5716 C96.7077,244.6616 93.8627,242.1556 92.5517,238.1166 C90.5567,231.9686 94.5357,225.3316 100.9237,224.1316 C105.4137,223.2876 109.1967,224.5866 112.1987,228.0646 C112.3037,228.1876 112.3897,228.3276 112.5527,228.5526" id="Fill-14" fill="#F8F7D6"></path>
            <path d="M186.918,238.8456 C187.227,239.0816 187.566,239.3516 187.916,239.6096 C188.947,240.3676 190.117,240.7726 191.384,240.7636 C191.926,240.7596 192.524,240.6026 192.993,240.3336 C193.712,239.9216 193.736,239.0926 193.082,238.5746 C192.669,238.2476 192.178,238.0006 191.689,237.7906 C190.554,237.3006 189.368,236.9136 188.261,236.3696 C187.429,235.9616 186.598,235.4666 185.918,234.8456 C183.15,232.3166 183.315,227.9316 186.211,225.5456 C187.134,224.7856 188.18,224.2536 189.358,224.0636 C192.81,223.5036 195.962,224.0836 198.564,226.6156 C198.635,226.6846 198.689,226.7706 198.772,226.8726 C197.517,228.0636 196.263,229.2526 194.977,230.4726 C194.842,230.3556 194.592,230.1366 194.34,229.9196 C193.367,229.0826 192.224,228.7836 190.973,228.9276 C190.623,228.9676 190.25,229.1146 189.963,229.3176 C189.223,229.8406 189.199,230.5946 189.918,231.1576 C190.333,231.4836 190.818,231.7406 191.307,231.9506 C192.289,232.3746 193.321,232.6916 194.283,233.1556 C195.182,233.5886 196.098,234.0566 196.863,234.6826 C199.751,237.0476 199.834,241.3606 197.094,243.8946 C196.061,244.8506 194.845,245.4876 193.453,245.6976 C189.509,246.2906 186.025,245.3346 183.123,242.5636 C184.38,241.3326 185.615,240.1206 186.918,238.8456" id="Fill-16" fill="#F8F7D6"></path>
            <path d="M348.9746,242.4911 C350.2466,241.2531 351.4676,240.0621 352.7536,238.8101 C353.0106,238.9991 353.3316,239.2221 353.6396,239.4631 C354.6756,240.2741 355.8566,240.7391 357.1606,240.7591 C357.7356,240.7661 358.3706,240.6241 358.8756,240.3551 C359.6346,239.9521 359.6576,239.0471 358.9566,238.5341 C358.4776,238.1821 357.9226,237.9161 357.3736,237.6791 C356.3286,237.2291 355.2376,236.8841 354.2176,236.3871 C353.4126,235.9951 352.6096,235.5291 351.9416,234.9421 C349.0336,232.3881 349.2056,227.8291 352.2606,225.4441 C353.4546,224.5121 354.8196,223.9981 356.3306,223.9041 C358.3996,223.7751 360.4336,223.9491 362.2736,224.9931 C363.1366,225.4831 363.9086,226.1361 364.8566,226.8121 C363.5396,228.1461 362.3316,229.3711 361.0886,230.6321 C360.7856,230.3691 360.5366,230.1521 360.2866,229.9371 C359.3166,229.1001 358.1776,228.7861 356.9246,228.9251 C356.5756,228.9631 356.2016,229.1031 355.9116,229.3031 C355.1716,229.8101 355.1416,230.5701 355.8256,231.1431 C356.1276,231.3981 356.4836,231.6111 356.8466,231.7711 C357.6416,232.1241 358.4716,232.3951 359.2586,232.7631 C360.3166,233.2591 361.4096,233.7181 362.3746,234.3591 C365.7196,236.5811 366.0406,241.8781 362.3336,244.4471 C361.0616,245.3301 359.6596,245.7851 358.1096,245.8561 C354.6216,246.0161 351.5756,245.0051 348.9746,242.4911" id="Fill-18" fill="#F8F7D6"></path>
            <mask id="mask-4" fill="white">
                <use xlink:href="#path-3"></use>
            </mask>
            <g id="Clip-21"></g>
            <polygon id="Fill-20" fill="#F8F7D6" mask="url(#mask-4)" points="225.105 245.427 230.313 245.427 230.313 224.352 225.105 224.352"></polygon>
            <path d="M199.8594,93.6029 C196.8334,93.6129 194.4804,91.2569 194.4494,88.1819 C194.4164,85.0639 196.7724,82.6409 199.8364,82.6419 C202.9084,82.6429 205.3154,85.0409 205.3204,88.1079 C205.3274,91.1719 202.9224,93.5919 199.8594,93.6029" id="Fill-22" fill="#F8F7D6" mask="url(#mask-4)"></path>
            <path d="M182.5117,379.3866 C187.5117,379.3686 192.5117,379.1926 197.4917,378.7706 C202.4687,378.3366 207.4387,377.6996 212.3037,376.5906 C214.7237,376.0186 217.1557,375.3706 219.3817,374.3136 C219.9237,374.0366 220.4657,373.7306 220.8787,373.3356 C220.9617,373.2336 221.0747,373.1316 221.1137,373.0266 C221.1457,372.9736 221.1697,372.9216 221.1687,372.8766 C221.1727,372.8546 221.1787,372.8316 221.1857,372.8076 L221.1857,372.6906 L221.1837,371.7516 L221.1767,367.9986 L221.1497,352.9846 L221.5827,353.2336 C220.8297,353.6016 220.1027,354.0406 219.3147,354.3186 L218.1507,354.7836 L216.9617,355.1686 C216.1737,355.4436 215.3667,355.6406 214.5647,355.8576 C213.7647,356.0876 212.9487,356.2406 212.1407,356.4276 C208.8957,357.1206 205.6137,357.5996 202.3237,357.9806 C195.7427,358.7266 189.1257,359.0806 182.5037,359.1116 C175.8827,359.0836 169.2647,358.7476 162.6817,358.0146 C159.3927,357.6406 156.1097,357.1666 152.8637,356.4726 C152.0557,356.2826 151.2397,356.1326 150.4397,355.8996 C149.6377,355.6806 148.8307,355.4836 148.0437,355.2036 L146.8567,354.8136 L145.6957,354.3406 C144.9087,354.0576 144.1857,353.6096 143.4357,353.2326 L143.8737,352.9846 L143.8467,367.9986 L143.8397,371.7516 L143.8387,372.6906 L143.8377,372.8076 C143.8447,372.8306 143.8507,372.8546 143.8547,372.8766 C143.8537,372.9216 143.8777,372.9736 143.9107,373.0266 C143.9487,373.1316 144.0617,373.2336 144.1447,373.3356 C144.5567,373.7296 145.0987,374.0366 145.6417,374.3136 C147.8677,375.3706 150.2997,376.0176 152.7197,376.5906 C157.5847,377.6996 162.5537,378.3356 167.5307,378.7696 C172.5107,379.1926 177.5117,379.3686 182.5117,379.3866 M182.5117,379.7466 C180.0067,379.7556 177.5017,379.7196 174.9977,379.6426 C172.4927,379.5886 169.9897,379.4606 167.4857,379.3136 C162.4717,379.0436 157.4767,378.4856 152.4897,377.5976 C151.2437,377.3646 149.9997,377.1006 148.7587,376.7766 C147.5167,376.4486 146.2827,376.0736 145.0397,375.5326 C144.7277,375.3856 144.4157,375.2406 144.0987,375.0546 C143.7817,374.8766 143.4547,374.6596 143.1177,374.3606 C143.0327,374.2826 142.9407,374.1726 142.8557,374.0766 C142.8127,374.0246 142.7727,373.9836 142.7277,373.9186 C142.6827,373.8476 142.6387,373.7736 142.5977,373.6976 C142.5567,373.6216 142.5177,373.5446 142.4807,373.4676 C142.4447,373.3796 142.4157,373.2556 142.3927,373.1466 C142.3697,373.0336 142.3537,372.9176 142.3447,372.8076 L142.3397,372.6906 L142.2927,371.7516 L142.1047,367.9986 L141.3547,352.9846 L141.1807,349.4996 L144.7357,351.0736 C145.0607,351.2186 145.3857,351.3606 145.7037,351.5106 C145.8687,351.5816 146.0127,351.6676 146.1917,351.7286 L146.7197,351.9136 L147.7737,352.2856 L148.8857,352.5946 C149.6137,352.8166 150.3917,352.9676 151.1537,353.1396 C151.9087,353.3236 152.7067,353.4336 153.4817,353.5786 C156.6197,354.0796 159.8197,354.4906 163.0447,354.7466 C169.4957,355.2306 176.0217,355.5156 182.5047,355.5086 C188.9777,355.5126 195.5057,355.2306 201.9567,354.7276 C205.1827,354.4586 208.3847,354.0566 211.5277,353.5526 C212.3047,353.4076 213.1027,353.2966 213.8607,353.1146 C214.6247,352.9446 215.4047,352.7916 216.1357,352.5736 L217.2527,352.2686 L218.3147,351.9006 L218.8467,351.7166 C219.0267,351.6566 219.1747,351.5726 219.3407,351.5026 L220.3247,351.0746 L223.8197,349.5546 L223.6487,352.9846 L222.9037,367.9986 L222.7167,371.7516 L222.6707,372.6906 L222.6647,372.8076 C222.6567,372.9166 222.6397,373.0326 222.6167,373.1446 C222.5947,373.2526 222.5657,373.3756 222.5307,373.4626 C222.4937,373.5396 222.4547,373.6156 222.4137,373.6916 C222.3727,373.7666 222.3287,373.8406 222.2837,373.9116 C222.2407,373.9756 222.1997,374.0166 222.1577,374.0696 C222.0727,374.1646 221.9817,374.2736 221.8967,374.3516 C221.2207,374.9426 220.6027,375.2276 219.9787,375.5236 C218.7377,376.0636 217.5027,376.4396 216.2617,376.7676 C215.0217,377.0916 213.7777,377.3566 212.5317,377.5896 C207.5457,378.4836 202.5507,379.0396 197.5367,379.3116 C195.0327,379.4606 192.5307,379.5866 190.0257,379.6416 C187.5207,379.7196 185.0157,379.7556 182.5117,379.7466" id="Fill-23" fill="#F8F7D6" mask="url(#mask-4)"></path>
            <path d="M182.061,325.8622 C175.362,325.9382 168.662,326.5562 162.098,327.7422 C158.821,328.3412 155.567,329.0392 152.405,329.9202 C150.822,330.3452 149.27,330.8532 147.791,331.4162 C147.058,331.6992 146.336,332.0072 145.712,332.3492 C145.559,332.4352 145.401,332.5202 145.275,332.6082 C145.129,332.6962 145.024,332.7812 144.921,332.8612 C144.856,332.9042 144.853,332.9302 144.813,332.9622 C144.8,332.9752 144.775,332.9942 144.77,333.0022 C144.774,333.0052 144.777,333.0072 144.777,333.0072 C144.782,333.0032 144.766,333.0132 144.782,332.9942 C144.809,332.9652 144.831,332.9302 144.846,332.8932 C144.854,332.8752 144.86,332.8552 144.864,332.8362 C144.876,332.8052 144.9,332.7542 144.911,332.7102 C144.938,332.6172 144.942,332.5182 144.937,332.4262 C144.969,332.2472 144.855,332.0052 144.853,331.9742 C144.838,331.9362 144.816,331.9012 144.79,331.8722 C144.793,331.8672 144.795,331.8632 144.795,331.8632 C144.795,331.8632 144.793,331.8612 144.791,331.8632 L144.842,331.9012 C144.878,331.9282 144.891,331.9542 144.957,331.9932 L145.118,332.1062 L145.319,332.2242 C145.446,332.3062 145.609,332.3832 145.763,332.4632 C146.395,332.7762 147.123,333.0542 147.86,333.3072 C149.35,333.8102 150.913,334.2422 152.501,334.5992 C155.676,335.3352 158.934,335.8782 162.207,336.3292 C168.76,337.2432 175.414,337.6482 182.073,337.7562 C188.732,337.8372 195.402,337.6372 202.015,336.9522 C205.316,336.5992 208.61,336.1402 211.838,335.4472 C213.451,335.1022 215.046,334.6912 216.584,334.1772 C217.348,333.9162 218.102,333.6282 218.788,333.2842 C219.131,333.1142 219.457,332.9242 219.72,332.7272 C219.797,332.6792 219.833,332.6292 219.894,332.5822 C219.959,332.5322 219.992,332.4892 220.021,332.4522 C220.036,332.4332 220.062,332.4122 220.07,332.3982 C220.07,332.3892 220.073,332.3832 220.079,332.3782 C220.111,332.3482 220.056,332.4102 220.085,332.4372 C220.07,332.5532 220.14,332.5382 220.045,332.4422 L219.998,332.3792 C219.978,332.3552 219.945,332.3302 219.919,332.3042 C219.86,332.2552 219.823,332.2012 219.746,332.1502 C219.484,331.9412 219.158,331.7412 218.818,331.5572 C218.135,331.1892 217.384,330.8762 216.624,330.5872 C215.095,330.0172 213.509,329.5322 211.901,329.1212 C208.687,328.2832 205.398,327.6662 202.094,327.1612 C195.475,326.1732 188.76,325.7972 182.061,325.8622 M182.061,325.5022 C188.772,325.5862 195.481,325.8082 202.185,326.4092 C205.534,326.7202 208.883,327.1332 212.206,327.8022 C213.866,328.1412 215.52,328.5392 217.159,329.0722 C217.977,329.3472 218.79,329.6482 219.6,330.0442 C220.005,330.2432 220.408,330.4622 220.814,330.7602 C220.915,330.8232 221.019,330.9272 221.121,331.0112 C221.173,331.0572 221.223,331.0962 221.273,331.1492 L221.429,331.3272 C221.479,331.3902 221.529,331.4412 221.579,331.5162 C221.629,331.6002 221.677,331.6862 221.722,331.7742 C221.816,331.9172 221.872,332.2252 221.888,332.4572 C221.868,332.6872 221.822,332.9692 221.731,333.1182 C221.69,333.2072 221.645,333.2942 221.599,333.3792 C221.551,333.4542 221.504,333.5082 221.454,333.5732 C221.356,333.7022 221.255,333.8192 221.156,333.9032 C221.058,333.9922 220.954,334.1012 220.855,334.1702 C220.456,334.4862 220.057,334.7242 219.656,334.9402 C218.854,335.3692 218.045,335.6992 217.231,336.0042 C215.603,336.5962 213.957,337.0662 212.302,337.4662 C208.99,338.2712 205.644,338.8282 202.29,339.2792 C195.578,340.1572 188.823,340.5402 182.073,340.6392 C178.697,340.6912 175.316,340.6612 171.934,340.5372 C168.551,340.4232 165.166,340.2112 161.782,339.8722 C158.399,339.5102 155.02,339.0252 151.658,338.2562 C149.978,337.8632 148.299,337.4152 146.622,336.8132 C145.782,336.5022 144.945,336.1672 144.084,335.7162 C143.868,335.5982 143.655,335.4902 143.429,335.3432 C143.317,335.2732 143.209,335.2092 143.095,335.1322 L142.747,334.8762 C142.637,334.8002 142.503,334.6752 142.381,334.5642 L142.198,334.3922 L141.993,334.1512 L141.798,333.9002 C141.723,333.7782 141.652,333.6502 141.589,333.5192 C141.463,333.3122 141.349,332.8512 141.333,332.4682 C141.337,332.2732 141.368,332.0712 141.412,331.8762 C141.435,331.7812 141.462,331.6752 141.491,331.5962 L141.582,331.4002 C141.646,331.2702 141.717,331.1432 141.792,331.0212 C141.864,330.9142 141.924,330.8492 141.994,330.7632 L142.202,330.5272 C142.269,330.4592 142.326,330.4122 142.39,330.3542 C142.511,330.2522 142.65,330.1212 142.762,330.0492 C142.997,329.8812 143.233,329.7222 143.452,329.6032 C143.679,329.4662 143.896,329.3602 144.114,329.2522 C144.982,328.8302 145.826,328.5242 146.67,328.2422 C148.358,327.7032 150.046,327.3282 151.731,327.0032 C155.107,326.3782 158.49,326.0452 161.868,325.8282 C168.626,325.4252 175.35,325.4432 182.061,325.5022" id="Fill-24" fill="#F8F7D6" mask="url(#mask-4)"></path>
            <path d="M220.8076,346.6766 C220.7836,344.9056 220.7626,343.1326 220.7196,341.3606 C220.6856,339.5886 220.6136,337.8166 220.5626,336.0436 L221.2026,336.4116 C218.2636,338.1426 215.0296,339.1486 211.8056,340.0286 C208.5666,340.8776 205.2866,341.5406 201.9886,342.0576 C195.3896,343.0906 188.7376,343.6136 182.0536,343.6636 C175.3736,343.6976 168.7146,343.3266 162.0756,342.4886 C158.7566,342.0636 155.4446,341.5296 152.1456,340.7836 C151.3226,340.5796 150.4966,340.4176 149.6766,340.1686 C148.8556,339.9346 148.0336,339.7246 147.2186,339.4256 L145.9956,339.0066 L144.7816,338.4966 C143.9696,338.1936 143.1796,337.7016 142.3866,337.2856 L144.5836,336.0436 L144.5156,341.7396 L144.4806,344.5876 L144.4636,346.0116 L144.4596,346.3666 L144.4576,346.5446 L144.4566,346.6346 L144.4566,346.6746 C144.4586,346.6596 144.4606,346.6446 144.4606,346.6276 C144.4626,346.5666 144.4436,346.4986 144.4166,346.4486 C144.4176,346.4306 144.4116,346.4126 144.4006,346.3996 C144.3976,346.3946 144.3826,346.3836 144.3856,346.3866 L144.4026,346.4026 C144.4126,346.4126 144.4216,346.4256 144.4296,346.4406 C144.5676,346.5996 144.9146,346.8366 145.2526,347.0356 C145.6126,347.2366 145.9986,347.4306 146.4056,347.6056 C147.2176,347.9576 148.0746,348.2736 148.9516,348.5486 C150.7036,349.1086 152.5186,349.5546 154.3456,349.9476 C161.6806,351.4776 169.2356,352.1626 176.7806,352.4596 C184.3336,352.7466 191.9166,352.7856 199.4756,352.2556 C203.2526,351.9806 207.0236,351.5356 210.7416,350.8036 C212.5956,350.4256 214.4416,349.9846 216.2386,349.3966 C217.1326,349.0956 218.0166,348.7576 218.8596,348.3466 C219.2786,348.1386 219.6916,347.9136 220.0576,347.6396 C220.4166,347.3786 220.7806,347.0276 220.8076,346.6766 M221.1676,346.6766 C221.1456,346.9866 220.9956,347.2346 220.8256,347.4226 C220.6546,347.6156 220.4636,347.7796 220.2626,347.9186 C219.8656,348.2096 219.4376,348.4356 219.0056,348.6456 C218.1376,349.0596 217.2406,349.3906 216.3336,349.6866 C214.5186,350.2706 212.6746,350.7556 210.8136,351.1506 C208.9536,351.5526 207.0836,351.9106 205.2036,352.2096 C203.3266,352.5206 201.4416,352.7886 199.5506,353.0166 C191.9906,353.9516 184.3616,354.3536 176.7336,354.2686 C169.1056,354.1496 161.4606,353.6466 153.8836,352.2546 C151.9896,351.8956 150.1006,351.4796 148.2216,350.9286 C147.2816,350.6566 146.3446,350.3406 145.4066,349.9596 C144.9366,349.7706 144.4666,349.5506 143.9916,349.2996 C143.5126,349.0216 143.0366,348.7636 142.5146,348.2366 L142.3136,347.9996 L142.2176,347.8786 C142.1846,347.8336 142.1476,347.7666 142.1156,347.7096 C142.0496,347.5916 141.9886,347.4686 141.9346,347.3456 C141.8826,347.1806 141.8446,346.9946 141.8246,346.8166 L141.8126,346.6826 L141.8116,346.6346 L141.8106,346.5446 L141.8086,346.3666 L141.8046,346.0116 L141.7876,344.5876 L141.7536,341.7396 L141.6836,336.0436 L141.6556,333.6846 L143.8826,334.8016 L144.8866,335.3056 C145.2086,335.4876 145.5736,335.6246 145.9366,335.7626 L147.0186,336.1836 L148.1506,336.5346 C148.8946,336.7866 149.6806,336.9646 150.4536,337.1626 C151.2216,337.3746 152.0236,337.5086 152.8086,337.6806 C155.9756,338.3056 159.2136,338.7046 162.4596,339.0146 C168.9586,339.6156 175.5186,339.8896 182.0536,339.9586 C188.5846,339.9716 195.1506,339.8096 201.6866,339.3786 C204.9536,339.1476 208.2206,338.8656 211.4476,338.3476 C212.2486,338.2046 213.0646,338.0966 213.8566,337.9126 C214.6536,337.7446 215.4546,337.5816 216.2326,337.3516 L217.4096,337.0296 L218.5546,336.6316 C219.3396,336.3996 220.0346,336.0036 220.7736,335.6766 L221.4326,335.3846 L221.4126,336.0436 C221.3626,337.8166 221.2886,339.5886 221.2556,341.3606 C221.2126,343.1326 221.1926,344.9056 221.1676,346.6766" id="Fill-25" fill="#F8F7D6" mask="url(#mask-4)"></path>
            <path d="M182.061,325.8622 C175.362,325.9382 168.662,326.5562 162.098,327.7422 C158.821,328.3412 155.567,329.0392 152.405,329.9202 C150.822,330.3452 149.27,330.8532 147.791,331.4162 C147.058,331.6992 146.336,332.0072 145.712,332.3492 C145.559,332.4352 145.401,332.5202 145.275,332.6082 C145.129,332.6962 145.024,332.7812 144.921,332.8612 C144.856,332.9042 144.853,332.9302 144.813,332.9622 C144.8,332.9752 144.775,332.9942 144.77,333.0022 C144.774,333.0052 144.777,333.0072 144.777,333.0072 C144.782,333.0032 144.766,333.0132 144.782,332.9942 C144.809,332.9652 144.831,332.9302 144.846,332.8932 C144.854,332.8752 144.86,332.8552 144.864,332.8362 C144.876,332.8052 144.9,332.7542 144.911,332.7102 C144.938,332.6172 144.942,332.5182 144.937,332.4262 C144.969,332.2472 144.855,332.0052 144.853,331.9742 C144.838,331.9362 144.816,331.9012 144.79,331.8722 C144.793,331.8672 144.795,331.8632 144.795,331.8632 C144.795,331.8632 144.793,331.8612 144.791,331.8632 L144.842,331.9012 C144.878,331.9282 144.891,331.9542 144.957,331.9932 L145.118,332.1062 L145.319,332.2242 C145.446,332.3062 145.609,332.3832 145.763,332.4632 C146.395,332.7762 147.123,333.0542 147.86,333.3072 C149.35,333.8102 150.913,334.2422 152.501,334.5992 C155.676,335.3352 158.934,335.8782 162.207,336.3292 C168.76,337.2432 175.414,337.6482 182.073,337.7562 C188.732,337.8372 195.402,337.6372 202.015,336.9522 C205.316,336.5992 208.61,336.1402 211.838,335.4472 C213.451,335.1022 215.046,334.6912 216.584,334.1772 C217.348,333.9162 218.102,333.6282 218.788,333.2842 C219.131,333.1142 219.457,332.9242 219.72,332.7272 C219.797,332.6792 219.833,332.6292 219.894,332.5822 C219.959,332.5322 219.992,332.4892 220.021,332.4522 C220.036,332.4332 220.062,332.4122 220.07,332.3982 C220.07,332.3892 220.073,332.3832 220.079,332.3782 C220.111,332.3482 220.056,332.4102 220.085,332.4372 C220.07,332.5532 220.14,332.5382 220.045,332.4422 L219.998,332.3792 C219.978,332.3552 219.945,332.3302 219.919,332.3042 C219.86,332.2552 219.823,332.2012 219.746,332.1502 C219.484,331.9412 219.158,331.7412 218.818,331.5572 C218.135,331.1892 217.384,330.8762 216.624,330.5872 C215.095,330.0172 213.509,329.5322 211.901,329.1212 C208.687,328.2832 205.398,327.6662 202.094,327.1612 C195.475,326.1732 188.76,325.7972 182.061,325.8622 M182.061,325.5022 C188.772,325.5862 195.481,325.8082 202.185,326.4092 C205.534,326.7202 208.883,327.1332 212.206,327.8022 C213.866,328.1412 215.52,328.5392 217.159,329.0722 C217.977,329.3472 218.79,329.6482 219.6,330.0442 C220.005,330.2432 220.408,330.4622 220.814,330.7602 C220.915,330.8232 221.019,330.9272 221.121,331.0112 C221.173,331.0572 221.223,331.0962 221.273,331.1492 L221.429,331.3272 C221.479,331.3902 221.529,331.4412 221.579,331.5162 C221.629,331.6002 221.677,331.6862 221.722,331.7742 C221.816,331.9172 221.872,332.2252 221.888,332.4572 C221.868,332.6872 221.822,332.9692 221.731,333.1182 C221.69,333.2072 221.645,333.2942 221.599,333.3792 C221.551,333.4542 221.504,333.5082 221.454,333.5732 C221.356,333.7022 221.255,333.8192 221.156,333.9032 C221.058,333.9922 220.954,334.1012 220.855,334.1702 C220.456,334.4862 220.057,334.7242 219.656,334.9402 C218.854,335.3692 218.045,335.6992 217.231,336.0042 C215.603,336.5962 213.957,337.0662 212.302,337.4662 C208.99,338.2712 205.644,338.8282 202.29,339.2792 C195.578,340.1572 188.823,340.5402 182.073,340.6392 C178.697,340.6912 175.316,340.6612 171.934,340.5372 C168.551,340.4232 165.166,340.2112 161.782,339.8722 C158.399,339.5102 155.02,339.0252 151.658,338.2562 C149.978,337.8632 148.299,337.4152 146.622,336.8132 C145.782,336.5022 144.945,336.1672 144.084,335.7162 C143.868,335.5982 143.655,335.4902 143.429,335.3432 C143.317,335.2732 143.209,335.2092 143.095,335.1322 L142.747,334.8762 C142.637,334.8002 142.503,334.6752 142.381,334.5642 L142.198,334.3922 L141.993,334.1512 L141.798,333.9002 C141.723,333.7782 141.652,333.6502 141.589,333.5192 C141.463,333.3122 141.349,332.8512 141.333,332.4682 C141.337,332.2732 141.368,332.0712 141.412,331.8762 C141.435,331.7812 141.462,331.6752 141.491,331.5962 L141.582,331.4002 C141.646,331.2702 141.717,331.1432 141.792,331.0212 C141.864,330.9142 141.924,330.8492 141.994,330.7632 L142.202,330.5272 C142.269,330.4592 142.326,330.4122 142.39,330.3542 C142.511,330.2522 142.65,330.1212 142.762,330.0492 C142.997,329.8812 143.233,329.7222 143.452,329.6032 C143.679,329.4662 143.896,329.3602 144.114,329.2522 C144.982,328.8302 145.826,328.5242 146.67,328.2422 C148.358,327.7032 150.046,327.3282 151.731,327.0032 C155.107,326.3782 158.49,326.0452 161.868,325.8282 C168.626,325.4252 175.35,325.4432 182.061,325.5022" id="Fill-26" fill="#F8F7D6" mask="url(#mask-4)"></path>
            <path d="M220.8076,346.6766 C220.7836,344.9056 220.7626,343.1326 220.7196,341.3606 C220.6856,339.5886 220.6136,337.8166 220.5626,336.0436 L221.2026,336.4116 C218.2636,338.1426 215.0296,339.1486 211.8056,340.0286 C208.5666,340.8776 205.2866,341.5406 201.9886,342.0576 C195.3896,343.0906 188.7376,343.6136 182.0536,343.6636 C175.3736,343.6976 168.7146,343.3266 162.0756,342.4886 C158.7566,342.0636 155.4446,341.5296 152.1456,340.7836 C151.3226,340.5796 150.4966,340.4176 149.6766,340.1686 C148.8556,339.9346 148.0336,339.7246 147.2186,339.4256 L145.9956,339.0066 L144.7816,338.4966 C143.9696,338.1936 143.1796,337.7016 142.3866,337.2856 L144.5836,336.0436 L144.5156,341.7396 L144.4806,344.5876 L144.4636,346.0116 L144.4596,346.3666 L144.4576,346.5446 L144.4566,346.6346 L144.4566,346.6746 C144.4586,346.6596 144.4606,346.6446 144.4606,346.6276 C144.4626,346.5666 144.4436,346.4986 144.4166,346.4486 C144.4176,346.4306 144.4116,346.4126 144.4006,346.3996 C144.3976,346.3946 144.3826,346.3836 144.3856,346.3866 L144.4026,346.4026 C144.4126,346.4126 144.4216,346.4256 144.4296,346.4406 C144.5676,346.5996 144.9146,346.8366 145.2526,347.0356 C145.6126,347.2366 145.9986,347.4306 146.4056,347.6056 C147.2176,347.9576 148.0746,348.2736 148.9516,348.5486 C150.7036,349.1086 152.5186,349.5546 154.3456,349.9476 C161.6806,351.4776 169.2356,352.1626 176.7806,352.4596 C184.3336,352.7466 191.9166,352.7856 199.4756,352.2556 C203.2526,351.9806 207.0236,351.5356 210.7416,350.8036 C212.5956,350.4256 214.4416,349.9846 216.2386,349.3966 C217.1326,349.0956 218.0166,348.7576 218.8596,348.3466 C219.2786,348.1386 219.6916,347.9136 220.0576,347.6396 C220.4166,347.3786 220.7806,347.0276 220.8076,346.6766 M221.1676,346.6766 C221.1456,346.9866 220.9956,347.2346 220.8256,347.4226 C220.6546,347.6156 220.4636,347.7796 220.2626,347.9186 C219.8656,348.2096 219.4376,348.4356 219.0056,348.6456 C218.1376,349.0596 217.2406,349.3906 216.3336,349.6866 C214.5186,350.2706 212.6746,350.7556 210.8136,351.1506 C208.9536,351.5526 207.0836,351.9106 205.2036,352.2096 C203.3266,352.5206 201.4416,352.7886 199.5506,353.0166 C191.9906,353.9516 184.3616,354.3536 176.7336,354.2686 C169.1056,354.1496 161.4606,353.6466 153.8836,352.2546 C151.9896,351.8956 150.1006,351.4796 148.2216,350.9286 C147.2816,350.6566 146.3446,350.3406 145.4066,349.9596 C144.9366,349.7706 144.4666,349.5506 143.9916,349.2996 C143.5126,349.0216 143.0366,348.7636 142.5146,348.2366 L142.3136,347.9996 L142.2176,347.8786 C142.1846,347.8336 142.1476,347.7666 142.1156,347.7096 C142.0496,347.5916 141.9886,347.4686 141.9346,347.3456 C141.8826,347.1806 141.8446,346.9946 141.8246,346.8166 L141.8126,346.6826 L141.8116,346.6346 L141.8106,346.5446 L141.8086,346.3666 L141.8046,346.0116 L141.7876,344.5876 L141.7536,341.7396 L141.6836,336.0436 L141.6556,333.6846 L143.8826,334.8016 L144.8866,335.3056 C145.2086,335.4876 145.5736,335.6246 145.9366,335.7626 L147.0186,336.1836 L148.1506,336.5346 C148.8946,336.7866 149.6806,336.9646 150.4536,337.1626 C151.2216,337.3746 152.0236,337.5086 152.8086,337.6806 C155.9756,338.3056 159.2136,338.7046 162.4596,339.0146 C168.9586,339.6156 175.5186,339.8896 182.0536,339.9586 C188.5846,339.9716 195.1506,339.8096 201.6866,339.3786 C204.9536,339.1476 208.2206,338.8656 211.4476,338.3476 C212.2486,338.2046 213.0646,338.0966 213.8566,337.9126 C214.6536,337.7446 215.4546,337.5816 216.2326,337.3516 L217.4096,337.0296 L218.5546,336.6316 C219.3396,336.3996 220.0346,336.0036 220.7736,335.6766 L221.4326,335.3846 L221.4126,336.0436 C221.3626,337.8166 221.2886,339.5886 221.2556,341.3606 C221.2126,343.1326 221.1926,344.9056 221.1676,346.6766" id="Fill-27" fill="#F8F7D6" mask="url(#mask-4)"></path>
            <path d="M220.9873,346.6766 C220.9873,349.0196 207.2913,353.4356 182.0613,353.4356 C156.8303,353.4356 143.1343,348.9296 143.1343,346.6766 L143.1343,336.0436 C150.6133,340.5496 170.4373,341.8116 182.0613,341.8116 C193.6843,341.8116 213.4193,340.4596 220.9873,336.0436 L220.9873,346.6766 Z" id="Fill-28" fill="#F8F7D6" mask="url(#mask-4)"></path>
            <path d="M182.8989,323.7694 C180.9759,322.2744 174.1909,320.4954 172.6939,321.0464 C175.8159,323.2794 179.2119,324.1514 182.8989,323.7694 M174.6409,325.9534 C174.4779,325.9004 174.4009,325.8734 174.3239,325.8504 C171.7369,325.0484 169.2609,323.9354 166.9099,322.5494 C165.7389,321.8594 164.5999,321.4954 163.2829,321.7764 C162.2079,322.0074 161.1219,322.1804 160.0449,322.4094 C159.7859,322.4634 159.5489,322.6374 159.2489,322.7824 C162.6839,324.9534 171.2949,326.7304 174.6409,325.9534 M190.9389,323.5884 C193.2189,325.2534 195.7739,325.9794 198.4819,326.1394 C201.2719,326.3034 205.5729,325.5454 206.3709,324.7754 C201.3089,323.0764 196.2059,322.2804 190.9389,323.5884 M155.1439,300.4014 C155.1059,300.4434 155.0669,300.4864 155.0289,300.5284 C155.1519,300.9264 155.2609,301.3314 155.4009,301.7234 C155.9219,303.1844 156.6449,304.5334 157.4819,305.8074 C160.7879,310.8454 165.1609,314.6534 169.8649,318.0724 C169.9989,318.1684 170.1929,318.2224 170.3549,318.2144 C172.4919,318.1144 174.5529,318.5864 176.6049,319.1434 C176.7629,319.1864 176.9269,319.2044 177.1739,319.2484 C177.0769,318.8684 177.0169,318.5754 176.9279,318.2914 C176.5249,317.0134 175.9729,315.8114 175.3129,314.6644 C173.6379,311.7534 171.4399,309.3694 168.8939,307.3354 C165.3829,304.5324 161.4669,302.5904 157.3299,301.1254 C156.6059,300.8694 155.8729,300.6414 155.1439,300.4014 M183.9349,285.2034 C183.8309,285.2634 183.7659,285.2884 183.7179,285.3314 C181.3549,287.5284 179.3139,290.0064 177.8599,292.9994 C176.1789,296.4614 175.5929,300.1284 176.2419,303.9654 C177.1529,309.3584 179.8059,313.7354 183.3519,317.5644 C183.5699,317.8004 183.7789,317.8454 184.0579,317.7164 C184.5809,317.4754 185.1329,317.2924 185.6369,317.0124 C188.2779,315.5424 190.0269,313.2224 191.1089,310.2944 C191.9529,308.0084 192.2799,305.6184 192.3279,303.1724 C192.3899,300.0564 192.0169,297.0114 190.9719,294.0884 C189.7329,290.6254 187.7509,287.7824 184.8229,285.7434 C184.5319,285.5404 184.2189,285.3744 183.9349,285.2034 M197.3569,318.7934 C196.9759,319.1374 196.5949,319.4814 196.1179,319.9114 C202.5939,318.7454 208.6359,319.9674 214.5849,322.8064 C214.2749,323.0224 214.0759,323.1964 213.8519,323.3134 C209.1659,325.7464 204.3229,327.7064 199.2009,328.7954 C196.8859,329.2894 194.5439,329.5444 192.1799,329.4084 C189.9609,329.2804 187.8109,328.8184 185.8609,327.6174 C185.0659,327.1264 184.3359,326.5154 183.5519,325.9424 C171.8569,332.4524 159.9139,328.9324 153.6279,324.8424 C153.7409,324.7314 153.8359,324.6194 153.9479,324.5334 C155.6269,323.2394 157.3049,321.9444 158.9899,320.6604 C159.8139,320.0324 160.7729,319.7614 161.7409,319.5264 C161.9529,319.4744 162.1679,319.4344 162.4779,319.3694 C162.2729,319.1734 162.1389,319.0364 161.9949,318.9124 C159.2989,316.5864 156.7249,314.1234 154.4559,311.3134 C153.1999,309.7584 152.0549,308.1184 151.1319,306.3114 C150.3769,304.8344 149.7849,303.2934 149.5709,301.6104 C149.5499,301.4474 149.5349,301.2834 149.5159,301.1194 C149.4039,300.1344 149.6279,299.3884 150.4949,298.8034 C151.7399,297.9634 152.8939,296.9694 154.0739,296.0234 C154.3589,295.7944 154.6319,295.7074 154.9869,295.7764 C159.9039,296.7464 164.6309,298.3204 169.0489,300.8684 C171.3619,302.2024 173.5379,303.7524 175.4529,305.6974 C175.5239,305.7704 175.6099,305.8284 175.7769,305.9624 C175.7769,305.6044 175.7849,305.3544 175.7759,305.1044 C175.6669,301.7544 175.7169,298.4104 176.0599,295.0764 C176.4569,291.2164 177.1769,287.4434 178.6999,283.8884 C179.3829,282.2954 180.1959,280.7804 181.3319,279.5084 C181.9349,278.8334 182.6489,278.2694 183.3239,277.6694 C183.6029,277.4214 183.9129,277.4284 184.2509,277.5874 C184.9839,277.9334 185.6409,278.3974 186.2339,278.9664 C187.2449,279.9364 188.0489,281.0834 188.7349,282.3274 C190.3629,285.2804 191.3849,288.4774 192.0299,291.8224 C192.3299,293.3734 192.4479,294.9394 192.4429,296.5274 C192.4289,300.5104 192.4579,304.4954 192.4719,308.4784 C192.4729,308.7294 192.4919,308.9804 192.5099,309.3924 C192.8069,309.1784 193.0009,309.0534 193.1809,308.9074 C196.2149,306.4364 199.3739,304.1674 202.7099,302.1894 C205.4469,300.5664 208.2629,299.1244 211.2969,298.2444 C212.1859,297.9864 213.0989,297.8214 214.0039,297.6274 C214.2139,297.5824 214.4369,297.5944 214.7449,297.5744 C214.7019,297.9634 214.6749,298.3024 214.6279,298.6384 C214.3389,300.6824 213.7659,302.6284 212.8599,304.4564 C212.1739,305.8424 211.2909,307.0674 210.1979,308.1204 C207.4299,310.7894 204.4629,313.1904 201.4969,315.5934 C200.9359,316.0474 200.3569,316.4754 199.7849,316.9154 C199.8949,316.7724 199.9879,316.6104 200.1159,316.4894 C201.8869,314.8144 203.4319,312.9164 204.9139,310.9554 C205.4589,310.2334 205.8989,309.4554 206.2319,308.6014 C206.9539,306.7444 207.3929,304.8014 207.7319,302.8314 C207.7459,302.7504 207.7109,302.6604 207.6979,302.5714 C207.5759,302.5714 207.4879,302.5584 207.4039,302.5734 C205.4689,302.9044 203.5669,303.3844 201.7249,304.1044 C198.5499,305.3434 195.6689,307.1014 193.1929,309.5954 C192.6179,310.1744 192.2139,310.7834 192.2859,311.6664 C192.3009,311.8514 192.2509,312.0404 192.2299,312.2274 C191.9549,314.6634 191.4739,317.0554 190.9369,319.4364 C190.8969,319.6134 190.8709,319.7944 190.8349,319.9934 C191.5439,320.2754 192.2389,320.3254 192.9429,320.2894 C194.2889,320.2194 195.5189,319.7334 196.7009,319.0794 C196.9099,318.9634 197.1379,318.8874 197.3569,318.7934" id="Fill-29" fill="#F8F7D6" mask="url(#mask-4)"></path>
        </g>
    </g>
</svg>